<?xml version="1.0" encoding="UTF-8" standalone="no"?>
<!-- Created with Sodipodi ("http://www.sodipodi.com/") -->
<svg
   xmlns:dc="http://purl.org/dc/elements/1.1/"
   xmlns:cc="http://web.resource.org/cc/"
   xmlns:rdf="http://www.w3.org/1999/02/22-rdf-syntax-ns#"
   xmlns:svg="http://www.w3.org/2000/svg"
   xmlns="http://www.w3.org/2000/svg"
   xmlns:xlink="http://www.w3.org/1999/xlink"
   xmlns:sodipodi="http://sodipodi.sourceforge.net/DTD/sodipodi-0.dtd"
   xmlns:inkscape="http://www.inkscape.org/namespaces/inkscape"
   width="48pt"
   height="48pt"
   viewBox="0 0 256 256"
   overflow="visible"
   enable-background="new 0 0 256 256"
   xml:space="preserve"
   id="svg153"
   sodipodi:version="0.32"
   sodipodi:docname="portico-full.svg"
   sodipodi:docbase="/Users/tim/Desktop/portico-full"
   inkscape:version="0.45.1"
   inkscape:output_extension="org.inkscape.output.svg.inkscape"><metadata
   id="metadata59"><rdf:RDF><cc:Work
       rdf:about=""><dc:format>image/svg+xml</dc:format><dc:type
         rdf:resource="http://purl.org/dc/dcmitype/StillImage" /></cc:Work></rdf:RDF></metadata>
  <defs
   id="defs230"><linearGradient
     id="linearGradient3398"
     gradientUnits="userSpaceOnUse"
     x1="22.9688"
     y1="83.856903"
     x2="201.916"
     y2="83.856903"
     gradientTransform="matrix(-1,0,0,1,261.5195,0)">
      <stop
   offset="0"
   style="stop-color:#b56500;stop-opacity:1;"
   id="stop3400" />
      <stop
   offset="1"
   style="stop-color:#fbad47;stop-opacity:1;"
   id="stop3402" />
    </linearGradient><linearGradient
     id="linearGradient13999"><stop
       id="stop14033"
       offset="0"
       style="stop-color:#f23f35;stop-opacity:1;" /><stop
       style="stop-color:#b50c00;stop-opacity:1;"
       offset="1"
       id="stop14003" /></linearGradient><linearGradient
     inkscape:collect="always"
     xlink:href="#linearGradient13999"
     id="linearGradient11217"
     gradientUnits="userSpaceOnUse"
     gradientTransform="matrix(0.5766266,0,0,0.5766266,-28.581178,78.639516)"
     spreadMethod="pad"
     x1="10.895116"
     y1="83.899384"
     x2="115.91922"
     y2="83.899384" /><linearGradient
     inkscape:collect="always"
     xlink:href="#XMLID_7_"
     id="linearGradient11225"
     gradientUnits="userSpaceOnUse"
     gradientTransform="matrix(-0.5766266,0,0,0.5766266,122.21792,78.639516)"
     x1="22.9688"
     y1="83.8569"
     x2="201.916"
     y2="83.8569" /><linearGradient
     inkscape:collect="always"
     xlink:href="#XMLID_3_"
     id="linearGradient11229"
     gradientUnits="userSpaceOnUse"
     gradientTransform="matrix(-0.5766266,0,0,0.5766266,122.21792,78.639516)"
     x1="165.4492"
     y1="76.793"
     x2="250.7891"
     y2="76.793" /><linearGradient
     inkscape:collect="always"
     xlink:href="#linearGradient3398"
     id="linearGradient20041"
     gradientUnits="userSpaceOnUse"
     gradientTransform="matrix(0.6543713,0,0,0.9944701,-23.488337,4.3962318)"
     x1="-67.958298"
     y1="102.63126"
     x2="-17.112352"
     y2="102.63126" /><linearGradient
     inkscape:collect="always"
     xlink:href="#linearGradient3398"
     id="linearGradient20043"
     gradientUnits="userSpaceOnUse"
     gradientTransform="matrix(0.6543713,0,0,0.9944701,-23.488337,4.3962318)"
     x1="-67.958298"
     y1="102.63126"
     x2="-17.112352"
     y2="102.63126" /></defs>
  <sodipodi:namedview
   id="base"
   inkscape:zoom="16.6258"
   inkscape:cx="0.14760743"
   inkscape:cy="22.70928"
   inkscape:window-width="1440"
   inkscape:window-height="792"
   inkscape:window-x="0"
   inkscape:window-y="22"
   inkscape:current-layer="Layer_1"
   pagecolor="#ffffff"
   inkscape:pageopacity="0" />
  <g
   id="Layer_2"
   stroke="#000000">
    <path
   fill="none"
   stroke="none"
   d="M256,256H0V0h256V256z"
   id="path155" />
  </g>
  <g
   id="Layer_1"
   stroke="#000000">
    <path
   opacity="0.2"
   stroke="none"
   d="M58.292,44.801L5.132,120.286c0,0,23.875,1.451,30.247,1.837c0,6.526,0,73.116,0,73.116    l75.329,31.003l112.544-30.119c0,0,0.654-66.139,0.686-69.417c5.733-0.562,26.117-2.56,26.117-2.56L191.73,43.56L59.777,42.691    L58.292,44.801z"
   id="path157" />
    <path
   stroke="none"
   d="M55.292,38.801L2.132,114.286c0,0,23.875,1.451,30.247,1.837c0,6.526,0,73.116,0,73.116l75.329,31.003    l112.544-30.119c0,0,0.654-66.139,0.686-69.417c5.733-0.562,26.117-2.56,26.117-2.56L188.73,37.56L56.777,36.691L55.292,38.801z"
   id="path158" />
    <linearGradient
   id="XMLID_1_"
   gradientUnits="userSpaceOnUse"
   x1="45.5264"
   y1="145.1514"
   x2="153.4199"
   y2="145.1514"
   gradientTransform="matrix(-1 0 0 1 261.5195 0)">
      <stop
   offset="0"
   style="stop-color:#F9E6B8"
   id="stop160" />
      <stop
   offset="1"
   style="stop-color:#FEDBA4"
   id="stop161" />
    </linearGradient>
    <path
   fill="url(#XMLID_1_)"
   stroke="none"
   d="M215.993,110.868l-0.751,76.045L108.1,215.588V74.715L215.993,110.868z"
   id="path165" />
    <linearGradient
   id="XMLID_2_"
   gradientUnits="userSpaceOnUse"
   x1="125.7432"
   y1="166.7432"
   x2="185.2432"
   y2="107.2432">
      <stop
   offset="0"
   style="stop-color:#FFFFFF"
   id="stop167" />
      <stop
   offset="1"
   style="stop-color:#FF9900"
   id="stop168" />
    </linearGradient>
    <path
   opacity="0.3"
   fill="url(#XMLID_2_)"
   stroke="none"
   d="M215.993,110.868l-0.751,76.045L108.1,215.588V74.715L215.993,110.868    z"
   id="path172" />
    <path
   fill="#3399FF"
   stroke="none"
   d="M152.688,183.049l-0.146-25.217l0.001-0.001l-0.036-6.122l-0.046-7.891l-0.001,0.001    l-0.027-4.617l-5.724,0.877l-18.69,2.865l0.175,30.265l0.002,0.429l0.086,14.821l0.001-0.001l0.001,0.135L152.688,183.049z"
   id="path173" />
    <path
   fill="#99CCFF"
   stroke="none"
   d="M133.248,182.338l14.417-3.275l-0.135-23.3c-5.473,5.436-9.005,13.087-14.325,19.285    L133.248,182.338z"
   id="path174" />
    <path
   opacity="0.91"
   fill="#FFFFFF"
   stroke="none"
   d="M133.044,147.232l0.161,27.815c5.32-6.198,8.853-13.85,14.325-19.285    l-0.063-10.741L133.044,147.232z"
   id="path175" />
    <linearGradient
   id="XMLID_3_"
   gradientUnits="userSpaceOnUse"
   x1="165.4492"
   y1="76.793"
   x2="250.7891"
   y2="76.793"
   gradientTransform="matrix(-1 0 0 1 261.5195 0)">
      <stop
   offset="0"
   style="stop-color:#B50C00"
   id="stop177" />
      <stop
   offset="1"
   style="stop-color:#FF1100"
   id="stop178" />
    </linearGradient>
    <path
   fill="url(#XMLID_3_)"
   stroke="none"
   d="M59.604,41.055l-48.873,69.397l34.211,2.079L96.07,48.536L59.604,41.055z"
   id="path182" />
    <path
   opacity="0.8"
   fill="#B50C00"
   stroke="none"
   d="M21.333,108H40l36.667-52.667l-12.667-8L21.333,108z"
   id="path183" />
    <linearGradient
   id="XMLID_4_"
   gradientUnits="userSpaceOnUse"
   x1="72.7612"
   y1="187.7217"
   x2="72.7612"
   y2="17.1329">
      <stop
   offset="0"
   style="stop-color:#F9E6B8"
   id="stop185" />
      <stop
   offset="1"
   style="stop-color:#FDB865"
   id="stop186" />
    </linearGradient>
    <path
   fill="url(#XMLID_4_)"
   stroke="none"
   d="M108.1,215.588l-70.677-29.089V97.57l33.083-45.711L108.1,104.22V215.588z"
   id="path190" />
    <path
   opacity="0.8"
   fill="#FEDBA4"
   stroke="none"
   d="M37.423,186.499l70.677,29.089v-6.517L37.423,181.14V186.499z"
   id="path191" />
    <path
   opacity="0.4"
   fill="#FFFFFF"
   stroke="none"
   d="M99.453,205.2c6.035-26.962,5.342-76.978,4.222-107.144l4.08,5.682    c0.114,0.664,0.228,1.328,0.345,2.006v109.844l-10.172-4.187C98.429,209.558,98.937,207.505,99.453,205.2z"
   id="path192" />
    <path
   fill="#3399FF"
   stroke="none"
   d="M203.501,173.973l-0.438-33.409l-0.088-6.773l-5.61,0.775l-16.993,2.349l-0.375,29.341    l0.001-0.001l-0.157,12.339L203.501,173.973z"
   id="path193" />
    <path
   opacity="0.91"
   fill="#FFFFFF"
   stroke="none"
   d="M198.133,145.955l-0.084-6.437l-12.733,1.76l-0.161,12.62    C188.82,150.179,193.26,147.688,198.133,145.955z"
   id="path194" />
    <path
   fill="#99CCFF"
   stroke="none"
   d="M185.154,153.898l-0.236,18.608l13.528-2.642l-0.313-23.91    C193.26,147.688,188.82,150.179,185.154,153.898z"
   id="path195" />
    <path
   opacity="0.8"
   fill="#FEDBA4"
   stroke="none"
   d="M215.242,181.724L108.1,209.071v6.517l107.143-28.675l0.751-76.045    l-0.018-0.006L215.242,181.724z"
   id="path196" />
    <g
   id="g197">
      <linearGradient
   id="XMLID_5_"
   gradientUnits="userSpaceOnUse"
   x1="211.9072"
   y1="148.3975"
   x2="121.9071"
   y2="167.0634">
        <stop
   offset="0"
   style="stop-color:#999999"
   id="stop199" />
        <stop
   offset="1"
   style="stop-color:#CCCCCC"
   id="stop200" />
      </linearGradient>
      <path
   opacity="0.2"
   fill="url(#XMLID_5_)"
   stroke="none"
   adobe-blending-mode="multiply"
   d="M152.688,183.049l-0.146-25.217     l0.001-0.001l-0.036-6.122l-0.046-7.891l-0.001,0.001l-0.027-4.617l-5.724,0.877l-18.69,2.865l0.175,30.265l0.002,0.429     l0.086,14.821l0.001-0.001l0.001,0.135L152.688,183.049z"
   id="path204" />
      <linearGradient
   id="XMLID_6_"
   gradientUnits="userSpaceOnUse"
   x1="212.4834"
   y1="151.1816"
   x2="122.4828"
   y2="169.8477">
        <stop
   offset="0"
   style="stop-color:#999999"
   id="stop206" />
        <stop
   offset="1"
   style="stop-color:#CCCCCC"
   id="stop207" />
      </linearGradient>
      <path
   opacity="0.2"
   fill="url(#XMLID_6_)"
   stroke="none"
   adobe-blending-mode="multiply"
   d="M203.501,173.973l-0.438-33.409     l-0.088-6.773l-5.61,0.775l-16.993,2.349l-0.375,29.341l0.001-0.001l-0.157,12.339L203.501,173.973z"
   id="path211" />
    </g>
    <path
   opacity="0.4"
   fill="#FFFFFF"
   stroke="none"
   d="M108.852,110.868c0,0-0.938,77.401,5.542,103.034l-6.294,1.686V113.326    C108.582,111.747,108.852,110.868,108.852,110.868z"
   id="path212" />
    <path
   fill="#B50C00"
   stroke="none"
   d="M236.333,116l2.218-1.393L183.39,41.911L59.911,41.09c-1.083,1.083-2.16,2.174-3.044,3.456    l54.848,84.613L236.333,116z"
   id="path213" />
    <path
   opacity="0.4"
   fill="#FF9900"
   stroke="none"
   d="M108.1,104.22L70.505,51.859l-9.54,13.181l46.749,72.119l108.132-11.418    l0.146-14.873L108.1,74.715V104.22z"
   id="path214" />
    <linearGradient
   id="XMLID_7_"
   gradientUnits="userSpaceOnUse"
   x1="22.9688"
   y1="83.8569"
   x2="201.916"
   y2="83.8569"
   gradientTransform="matrix(-1 0 0 1 261.5195 0)">
      <stop
   offset="0"
   style="stop-color:#B50C00"
   id="stop216" />
      <stop
   offset="1"
   style="stop-color:#FB6747"
   id="stop217" />
    </linearGradient>
    <path
   fill="url(#XMLID_7_)"
   stroke="none"
   d="M185.919,41.886L59.604,41.055l56.016,85.604l122.932-12.052L185.919,41.886z"
   id="path221" />
    <path
   d="M 85.568,192.475 L 86.253,147.587 L 55.811,141.187 L 55.745,145.518 L 55.635,152.669 L 55.634,152.668 L 55.513,160.618 L 55.47,163.472 L 55.47,163.473 L 55.170974,193.68897 L 85.503974,206.4231 L 85.568,192.475 z "
   id="path222"
   stroke="none"
   fill="#28A167"
   sodipodi:nodetypes="cccccccccccc" />
    <path
   fill="#64BE88"
   stroke="none"
   d="M 59.187,162.605 L 58.852131,195.17008 L 79.605,203.86 L 82.071026,204.84095 L 82.073,193.2 C 73.604,183.333 67.872,171.291 59.187,162.605 z "
   id="path223"
   sodipodi:nodetypes="cccccc" />
    <path
   fill="#A6DCB5"
   stroke="none"
   d="M 82.111895,149.978 L 82.072,193.201 C 73.603,183.334 67.871,171.292 59.186,162.606 L 58.959,145.919 L 82.111895,149.978 z "
   id="path224"
   sodipodi:nodetypes="ccccc" />
    <path
   opacity="0.6"
   fill="#FFFFFF"
   stroke="none"
   d="M37.423,186.499v-34.852c1.2,12.559,2.819,25.135,4.996,36.907    L37.423,186.499z"
   id="path225" />
    <path
   opacity="0.5"
   fill="#CCCCCC"
   stroke="none"
   adobe-blending-mode="overlay"
   d="M215.825,127.898l-0.583,59.015l-2.698,0.723    C213.24,172.873,214.678,147.587,215.825,127.898z"
   id="path226" />
    <path
   fill="#FB6747"
   stroke="none"
   d="M121.394,123.4l61.966-5.916c-8.369-1.381-18.311-2.936-30.095-4.663    c-41.795-6.123-63.241-48.647-71.15-68.78l-14.106-0.09L121.394,123.4z"
   id="path227" />
    <path
   opacity="0.8"
   fill="#FFFFFF"
   stroke="none"
   d="M41.667,107"
   id="path228" />
  <path
   style="fill:#800000;fill-opacity:1;stroke:#820000;stroke-width:0.78820342;stroke-linecap:butt;stroke-linejoin:round;stroke-miterlimit:4;stroke-opacity:1"
   d="M 49.978532,117.32462 L 92.612822,125.85309 L 92.612822,134.31223 L 49.978532,125.48968 L 49.978532,117.32462 z "
   id="rect2211"
   sodipodi:nodetypes="ccccc" /><path
   d="M 5.7880734,102.31292 L -22.393398,142.32908 L -2.6664258,143.52788 L 26.815339,106.62666 L 5.7880734,102.31292 z "
   id="path4352"
   style="fill:url(#linearGradient11229);stroke:none" /><path
   d="M -16.280003,140.91519 L -5.5161145,140.91519 L 15.627053,110.546 L 8.3229239,105.93298 L -16.280003,140.91519 z "
   id="path4354"
   style="opacity:0.8;fill:#b50c00;stroke:none" /><path
   d="M 78.624662,102.7921 L 5.7880734,102.31292 L 38.088389,151.67446 L 108.97425,144.72496 L 78.624662,102.7921 z "
   id="path4356"
   style="fill:url(#linearGradient11225);stroke:none" /><path
   d="M 41.417831,149.79524 L 77.149075,146.38391 C 72.323287,145.58759 66.590465,144.69094 59.795497,143.6951 C 35.695389,140.16442 23.329055,115.64395 18.768515,104.03473 L 10.63462,103.98283 L 41.417831,149.79524 z "
   id="path4360"
   style="fill:#fb6747;stroke:none" /><g
   id="g17116"
   transform="matrix(0.6704202,0,0,0.4764069,35.862913,111.92643)"><path
     sodipodi:nodetypes="ccccc"
     id="path6198"
     d="M -75.029016,36.791138 L -67.867645,36.791138 L -67.950073,171.09432 L -75.029016,167.08249 L -75.029016,36.791138 z "
     style="fill:#b57900;fill-opacity:1;stroke:none;stroke-width:0.53399998;stroke-linecap:butt;stroke-linejoin:round;stroke-miterlimit:4;stroke-opacity:1" /><path
     sodipodi:nodetypes="ccccc"
     id="path6200"
     d="M -67.958296,41.674521 L -61.546064,41.674521 L -61.539669,167.82625 L -68.182923,170.94854 L -67.958296,41.674521 z "
     style="fill:url(#linearGradient20041);fill-opacity:1;stroke:none;stroke-width:0.53399998;stroke-linecap:butt;stroke-linejoin:round;stroke-miterlimit:4;stroke-opacity:1" /></g><g
   id="g17120"
   transform="matrix(0.7305317,0,0,0.4493511,75.643916,127.67907)"><path
     sodipodi:nodetypes="ccccc"
     id="path17122"
     d="M -75.029016,36.791138 L -67.867645,36.791138 L -67.950073,171.09432 L -75.029016,167.08249 L -75.029016,36.791138 z "
     style="fill:#b57900;fill-opacity:1;stroke:none;stroke-width:0.53399998;stroke-linecap:butt;stroke-linejoin:round;stroke-miterlimit:4;stroke-opacity:1" /><path
     sodipodi:nodetypes="ccccc"
     id="path17124"
     d="M -67.958296,41.674521 L -61.546064,41.674521 L -61.539669,167.82625 L -68.166422,171.10151 L -67.958296,41.674521 z "
     style="fill:url(#linearGradient20043);fill-opacity:1;stroke:none;stroke-width:0.53399998;stroke-linecap:butt;stroke-linejoin:round;stroke-miterlimit:4;stroke-opacity:1" /></g><path
   style="fill:url(#linearGradient11217);fill-opacity:1;stroke:none;stroke-width:0.53399998;stroke-linecap:butt;stroke-linejoin:round;stroke-miterlimit:4;stroke-opacity:1"
   d="M 5.7310566,102.39411 L 38.260927,151.64216 L -22.298768,142.23051 L 5.7310566,102.39411 z "
   id="rect6230"
   sodipodi:nodetypes="cccc" /><path
   style="fill:none;fill-opacity:1;stroke:#820000;stroke-width:1.66859961;stroke-linecap:butt;stroke-linejoin:round;stroke-miterlimit:4;stroke-opacity:1"
   d="M 5.6554839,102.52404 L 78.78779,102.62868 L 108.93234,144.75189 L 37.883721,151.74289 L -5.2556753,144.70881 L -9.8775854,143.97583 L -22.387269,141.99194 L 5.6554839,102.52404 z "
   id="rect8171"
   sodipodi:nodetypes="cccccccc" /><path
   style="fill:none;fill-opacity:1;stroke:#820000;stroke-width:1.66806543;stroke-linecap:butt;stroke-linejoin:round;stroke-miterlimit:4;stroke-dasharray:none;stroke-opacity:1"
   d="M 6.5768986,103.6212 L 37.549491,151.12646 L 6.5768986,103.6212 z "
   id="rect9145"
   sodipodi:nodetypes="ccc" /><path
   sodipodi:type="arc"
   style="fill:#ffffff;fill-opacity:1;stroke:none;stroke-width:0.67799997;stroke-linecap:butt;stroke-linejoin:round;stroke-miterlimit:4;stroke-dasharray:none;stroke-opacity:1"
   id="path12059"
   sodipodi:cx="-16.785446"
   sodipodi:cy="-16.83156"
   sodipodi:rx="5.1717324"
   sodipodi:ry="4.9902678"
   d="M -11.613714,-16.83156 A 5.1717324,4.9902678 0 1 1 -11.61643,-16.993287"
   sodipodi:start="0"
   sodipodi:end="6.2507712"
   sodipodi:open="true"
   transform="matrix(0.8763755,-5.3710196e-2,5.6585279e-2,0.8934451,21.159791,129.51606)" /><rect
   style="opacity:1;fill:none;fill-opacity:1;stroke:#000000;stroke-width:2.20484018;stroke-linecap:butt;stroke-linejoin:round;stroke-miterlimit:4;stroke-dasharray:none;stroke-opacity:1"
   id="rect5383"
   width="136.80396"
   height="136.80392"
   x="-25.330671"
   y="85.972214"
   inkscape:export-xdpi="2245.5496"
   inkscape:export-ydpi="2245.5496" /></g>
</svg>